<?xml version="1.0" encoding="utf-8"?>
<!-- Generator: Adobe Illustrator 16.2.1, SVG Export Plug-In . SVG Version: 6.00 Build 0)  -->
<!DOCTYPE svg PUBLIC "-//W3C//DTD SVG 1.1//EN" "http://www.w3.org/Graphics/SVG/1.1/DTD/svg11.dtd">
<svg version="1.1" id="Layer_1" xmlns="http://www.w3.org/2000/svg" xmlns:xlink="http://www.w3.org/1999/xlink" x="0px" y="0px"
	 width="199.988px" height="45.659px" viewBox="0 0 199.988 45.659" enable-background="new 0 0 199.988 45.659"
	 xml:space="preserve">
<g>
	<g>
		<path fill="#B7C0C7" d="M58.019,34.268c-3.91,0-5.677-2.681-5.677-6.212V15.6c0-1.231,0.915-2.208,2.113-2.208
			c1.167,0,2.113,0.977,2.113,2.208v2.144h3.941c1.041,0,1.955,0.788,1.955,1.893c0,1.041-0.914,1.828-1.955,1.828h-3.941v6.497
			c0,1.514,0.662,2.334,2.049,2.334c0.694,0,1.387-0.19,1.956-0.348c1.607-0.378,2.617,0.632,2.617,1.798
			c0,0.693-0.347,1.419-1.325,1.861C60.762,34.11,59.217,34.268,58.019,34.268z"/>
		<path fill="#B7C0C7" d="M76.372,19.352c0,0.852-0.662,1.987-1.987,1.987c-0.725,0-1.419-0.315-2.365-0.284
			c-1.041,0.031-1.64,0.599-1.64,2.05v8.924c0,1.199-0.915,2.145-2.113,2.145c-1.167,0-2.113-0.945-2.113-2.145v-9.713
			c0-3.278,1.924-5.392,5.551-5.392c1.04,0,2.081,0.094,2.711,0.252C75.71,17.523,76.372,18.312,76.372,19.352z"/>
		<path fill="#B7C0C7" d="M92.771,24.934c0,1.229-0.631,2.112-2.176,2.112h-8.388v0.315c0,1.986,1.514,3.059,3.626,3.059
			c1.136,0,2.303-0.284,3.375-0.693c1.671-0.63,2.775,0.505,2.775,1.672c0,0.599-0.221,1.261-1.072,1.766
			c-1.167,0.693-3.186,1.104-5.204,1.104c-4.352,0-7.285-2.743-7.6-6.686c-0.095-1.229-0.063-2.964,0-3.941
			c0.378-4.1,3.311-6.717,7.442-6.717c4.289,0,7.222,2.87,7.222,7.315V24.934z M88.356,24.177c0.221,0,0.347-0.126,0.347-0.379
			c0.095-1.923-1.104-3.216-3.154-3.216c-2.239,0-3.342,1.418-3.342,3.595H88.356z"/>
		<path fill="#B7C0C7" d="M110.589,24.934c0,1.229-0.631,2.112-2.177,2.112h-8.387v0.315c0,1.986,1.514,3.059,3.626,3.059
			c1.136,0,2.302-0.284,3.375-0.693c1.671-0.63,2.774,0.505,2.774,1.672c0,0.599-0.221,1.261-1.073,1.766
			c-1.166,0.693-3.185,1.104-5.202,1.104c-4.353,0-7.285-2.743-7.6-6.686c-0.094-1.229-0.063-2.964,0-3.941
			c0.378-4.1,3.311-6.717,7.442-6.717c4.289,0,7.222,2.87,7.222,7.315V24.934z M106.174,24.177c0.221,0,0.348-0.126,0.348-0.379
			c0.095-1.923-1.104-3.216-3.154-3.216c-2.238,0-3.342,1.418-3.342,3.595H106.174z"/>
		<path fill="#B7C0C7" d="M118.441,18.153c0.694-0.63,2.303-1.229,3.974-1.229c4.005,0,6.37,2.396,6.37,6.905v8.104
			c0,1.262-0.883,2.239-2.144,2.239c-1.167,0-2.082-0.978-2.082-2.239v-7.883c0-1.924-1.104-2.996-2.838-2.996
			c-1.325,0-2.617,0.599-3.28,1.324v9.618c0,1.198-0.883,2.176-2.081,2.176c-1.166,0-2.144-0.978-2.144-2.176V13.549
			c0-1.229,0.915-2.176,2.112-2.176c1.167,0,2.112,0.946,2.112,2.176V18.153z"/>
		<path fill="#B7C0C7" d="M140.045,34.268c-4.132,0-7.254-2.649-7.568-6.401c-0.096-1.262-0.096-3.248,0-4.51
			c0.314-3.784,3.437-6.433,7.568-6.433c4.162,0,7.221,2.648,7.536,6.433c0.095,1.262,0.095,3.217,0,4.479
			C147.266,31.618,144.207,34.268,140.045,34.268z M143.387,24.02c-0.094-1.798-1.355-3.059-3.342-3.059
			c-1.987,0-3.218,1.261-3.375,3.059c-0.062,0.851-0.062,2.333,0,3.153c0.157,1.797,1.388,3.059,3.375,3.059
			c1.986,0,3.216-1.262,3.342-3.059C143.45,26.353,143.45,24.87,143.387,24.02z"/>
		<path fill="#B7C0C7" d="M151.271,19.257c0-1.262,0.756-2.239,2.081-2.239c1.198,0,2.145,0.978,2.145,2.239v8.041
			c0,1.893,1.23,2.934,3.027,2.934c1.388,0,2.429-0.41,3.09-0.819V19.194c0-1.199,0.884-2.177,2.113-2.177
			c1.167,0,2.112,0.978,2.112,2.177v11.794c0,0.726-0.188,1.136-0.757,1.482c-0.977,0.693-3.279,1.797-6.653,1.797
			c-4.541,0-7.158-2.459-7.158-6.906V19.257z"/>
		<path fill="#B7C0C7" d="M182.492,28.78c0,3.532-2.934,5.487-6.592,5.487c-2.964,0-4.856-0.852-6.022-1.829
			c-0.757-0.63-0.979-1.828-0.379-2.617c0.63-0.852,1.702-1.041,2.744-0.378c0.978,0.63,2.27,1.039,3.752,1.039
			c1.64,0,2.397-0.598,2.397-1.449c0-0.694-0.505-1.167-1.83-1.482c-1.135-0.253-1.104-0.221-2.334-0.537
			c-2.586-0.661-4.604-2.111-4.604-4.823c0-3.406,2.743-5.267,6.434-5.267c1.986,0,4.036,0.504,5.14,1.419
			c0.915,0.757,0.852,2.05,0.189,2.806c-0.631,0.694-1.703,0.789-2.743,0.253c-0.82-0.409-1.924-0.693-2.744-0.693
			c-1.577,0-2.238,0.599-2.238,1.355c0,0.662,0.473,1.104,1.892,1.419l2.239,0.506C180.946,24.745,182.492,26.29,182.492,28.78z"/>
		<path fill="#B7C0C7" d="M199.994,24.934c0,1.229-0.631,2.112-2.176,2.112h-8.388v0.315c0,1.986,1.514,3.059,3.626,3.059
			c1.136,0,2.302-0.284,3.374-0.693c1.672-0.63,2.775,0.505,2.775,1.672c0,0.599-0.222,1.261-1.072,1.766
			c-1.167,0.693-3.186,1.104-5.203,1.104c-4.353,0-7.285-2.743-7.601-6.686c-0.094-1.229-0.062-2.964,0-3.941
			c0.379-4.1,3.312-6.717,7.442-6.717c4.288,0,7.222,2.87,7.222,7.315V24.934z M195.579,24.177c0.221,0,0.347-0.126,0.347-0.379
			c0.096-1.923-1.103-3.216-3.153-3.216c-2.239,0-3.342,1.418-3.342,3.595H195.579z"/>
	</g>
	<path fill="#B7C0C7" d="M37.083,8.332c-1.513-0.856-3.93,0.52-5.397,3.072l-2.657,4.621c-0.971,1.922-0.838,4.211,0.394,5.977
		l0.078,0.11c1.231,1.767,2.882,3.4,3.428,3.981c0.321,0.344,0.567,0.766,0.703,1.249c0.449,1.604-0.488,3.27-2.093,3.718
		c-1.605,0.449-3.27-0.488-3.719-2.093c-0.113-0.401-0.138-0.809-0.087-1.199c0.086-0.662-0.126-1.743-1.077-2.803
		s-2.894,0.942-3.521,3.001l-0.03,0.095c-0.628,2.06-1.024,3.856-0.905,4.029c0.07,0.103,0.136,0.212,0.196,0.324
		c0.881,1.659,0.251,3.718-1.407,4.599c-1.658,0.883-3.718,0.252-4.599-1.406c-0.881-1.659-0.251-3.717,1.407-4.6
		c0.074-0.039,0.149-0.075,0.226-0.109c0.127-0.056,0.486-0.921,0.798-1.943s0.564-1.852,0.564-1.852
		c0.034-0.108,0.062-0.217,0.089-0.323l1.679-5.992l-1.795,3.685c-0.214-0.7-0.565-0.725-1.336-0.174
		c-0.464,0.333-1.232,0.987-1.607,1.255c-0.705,0.505-1.294,1.483-1.606,2.084c-0.184,0.354-0.441,0.676-0.77,0.941
		c-1.285,1.043-3.173,0.847-4.215-0.438c-1.043-1.285-0.847-3.172,0.438-4.215c0.377-0.306,0.806-0.505,1.249-0.602
		c0.755-0.164,3.323-1.733,4.87-2.84c0.277-0.198,0.51-0.386,0.698-0.56l4.131-3.138l-3.598,1.945c0,0-0.365-0.037-0.814,0.013
		c-1.316,0.146-2.673,0.332-2.929,0.657c-0.151,0.193-0.332,0.368-0.541,0.518c-1.2,0.866-2.875,0.593-3.74-0.608
		c-0.865-1.2-0.593-2.876,0.608-3.739c0.496-0.358,1.072-0.521,1.637-0.505c0.963,0.026,3.497,0.54,5.616,0.165l0.545-0.097
		c2.12-0.375,4.658-2.221,5.669-4.122c0,0,0.99-1.739,2.211-3.885c1.223-2.145,1.132-4.496-0.201-5.25l-2.414-1.364
		c-1.217-0.688-3.21-0.688-4.428-0.002L2.209,9.883c-1.218,0.687-2.215,2.394-2.215,3.792v18.311c0,1.398,0.997,3.104,2.215,3.791
		l16.621,9.37c1.218,0.688,3.211,0.686,4.428-0.003l16.564-9.364c1.218-0.688,2.214-2.396,2.214-3.794V13.675
		c0-1.398-0.996-3.107-2.214-3.795C39.822,9.88,38.596,9.187,37.083,8.332z"/>
</g>
</svg>
